<svg width="18" height="26" viewBox="0 0 18 26" fill="none" xmlns="http://www.w3.org/2000/svg">
<path d="M16.0571 1V0.8H15.8571H2.14286H1.94286V1V3.4V3.6H2.14286H3.08571V10.5419L0.831157 14.0928L0.8 14.1419V14.2V16.6V16.8H1H7.65714V25V25.2H7.85714H10.1429H10.3429V25V16.8H17H17.2V16.6V14.2V14.1419L17.1688 14.0928L14.9143 10.5419V3.6H15.8571H16.0571V3.4V1ZM5.74027 11.4344L5.77143 11.3853V11.3272V3.6H12.2286V11.3272V11.3853L12.2597 11.4344L13.8887 14H4.11132L5.74027 11.4344Z" fill="#0652DD" stroke="#0652DD" stroke-width="0.4"/>
</svg>
