<svg width="100" height="41" viewBox="0 0 100 41" fill="none" xmlns="http://www.w3.org/2000/svg">
<mask id="path-1-outside-1_9630_129763" maskUnits="userSpaceOnUse" x="0" y="0" width="100" height="41" fill="black">
<rect fill="white" width="100" height="41"/>
<path d="M1 23.52C1 21.8667 1.38667 20.3733 2.16 19.04C2.96 17.7067 4.05333 16.6533 5.44 15.88C6.82667 15.1067 8.4 14.72 10.16 14.72C11.9733 14.72 13.56 15.1067 14.92 15.88C16.28 16.6533 17.3333 17.7067 18.08 19.04C18.8267 20.3733 19.2 21.8667 19.2 23.52C19.2 25.1733 18.8267 26.68 18.08 28.04C17.3333 29.3733 16.2667 30.4267 14.88 31.2C13.52 31.9733 11.9333 32.36 10.12 32.36C8.36 32.36 6.78667 32 5.4 31.28C4.04 30.5333 2.96 29.5067 2.16 28.2C1.38667 26.8667 1 25.3067 1 23.52ZM4.72 23.56C4.72 24.6267 4.96 25.6 5.44 26.48C5.92 27.3333 6.56 28.0133 7.36 28.52C8.18667 29.0267 9.09333 29.28 10.08 29.28C11.12 29.28 12.04 29.0267 12.84 28.52C13.6667 28.0133 14.3067 27.3333 14.76 26.48C15.2133 25.6 15.44 24.6267 15.44 23.56C15.44 22.4933 15.2133 21.5333 14.76 20.68C14.3067 19.8 13.6667 19.1067 12.84 18.6C12.04 18.0667 11.12 17.8 10.08 17.8C9.06667 17.8 8.14667 18.0667 7.32 18.6C6.52 19.1333 5.88 19.84 5.4 20.72C4.94667 21.5733 4.72 22.52 4.72 23.56Z"/>
<path d="M22.0369 1H25.7569V31.96H22.0369V1Z"/>
<path d="M29.9931 15.4H33.7131V31.96H29.9931V15.4ZM29.7131 9.4C29.7131 8.81333 29.9398 8.32 30.3931 7.92C30.8731 7.52 31.3931 7.32 31.9531 7.32C32.5131 7.32 33.0065 7.52 33.4331 7.92C33.8865 8.32 34.1131 8.81333 34.1131 9.4C34.1131 10.0133 33.8865 10.52 33.4331 10.92C33.0065 11.2933 32.5131 11.48 31.9531 11.48C31.3931 11.48 30.8731 11.28 30.3931 10.88C29.9398 10.48 29.7131 9.98667 29.7131 9.4Z"/>
<path d="M44.1894 21.56L48.1494 15.4H51.9094L45.5494 24.28L44.1894 21.56ZM52.5494 31.96H48.0694L35.4694 15.4H40.0694L52.5494 31.96ZM43.7894 25.8L39.4294 31.96H35.6694L41.9894 23.32L43.7894 25.8Z"/>
<path d="M75.2556 15.4H78.9756V31.96H75.2556V15.4ZM74.9756 9.4C74.9756 8.81333 75.2023 8.32 75.6556 7.92C76.1356 7.52 76.6556 7.32 77.2156 7.32C77.7756 7.32 78.269 7.52 78.6956 7.92C79.149 8.32 79.3756 8.81333 79.3756 9.4C79.3756 10.0133 79.149 10.52 78.6956 10.92C78.269 11.2933 77.7756 11.48 77.2156 11.48C76.6556 11.48 76.1356 11.28 75.6556 10.88C75.2023 10.48 74.9756 9.98667 74.9756 9.4Z"/>
<path d="M86.5319 15.4L86.8519 19.44L86.6919 18.8C87.2252 17.5733 88.0919 16.6 89.2919 15.88C90.4919 15.1333 91.8785 14.76 93.4519 14.76C95.0252 14.76 96.3052 15.2267 97.2919 16.16C98.3052 17.0667 98.8252 18.2533 98.8519 19.72V31.96H95.0919V21.04C95.0652 20.1333 94.7985 19.4 94.2919 18.84C93.8119 18.2533 93.0519 17.96 92.0119 17.96C91.0519 17.96 90.1852 18.2267 89.4119 18.76C88.6385 19.2933 88.0252 20.0267 87.5719 20.96C87.1452 21.8933 86.9319 22.9733 86.9319 24.2V31.96H83.2119V15.4H86.5319Z"/>
<path d="M70.0571 15.96V18.36H68.9143V25.56L71.2 29.16V31.56H64.3429V39.96H62.0571V31.56H55.2V29.16L57.4857 25.56V18.36H56.3429V15.96H70.0571ZM59.7714 18.36V26.2872L57.9474 29.16H68.4526L66.6286 26.2872V18.36H59.7714Z"/>
</mask>
<path d="M1 23.52C1 21.8667 1.38667 20.3733 2.16 19.04C2.96 17.7067 4.05333 16.6533 5.44 15.88C6.82667 15.1067 8.4 14.72 10.16 14.72C11.9733 14.72 13.56 15.1067 14.92 15.88C16.28 16.6533 17.3333 17.7067 18.08 19.04C18.8267 20.3733 19.2 21.8667 19.2 23.52C19.2 25.1733 18.8267 26.68 18.08 28.04C17.3333 29.3733 16.2667 30.4267 14.88 31.2C13.52 31.9733 11.9333 32.36 10.12 32.36C8.36 32.36 6.78667 32 5.4 31.28C4.04 30.5333 2.96 29.5067 2.16 28.2C1.38667 26.8667 1 25.3067 1 23.52ZM4.72 23.56C4.72 24.6267 4.96 25.6 5.44 26.48C5.92 27.3333 6.56 28.0133 7.36 28.52C8.18667 29.0267 9.09333 29.28 10.08 29.28C11.12 29.28 12.04 29.0267 12.84 28.52C13.6667 28.0133 14.3067 27.3333 14.76 26.48C15.2133 25.6 15.44 24.6267 15.44 23.56C15.44 22.4933 15.2133 21.5333 14.76 20.68C14.3067 19.8 13.6667 19.1067 12.84 18.6C12.04 18.0667 11.12 17.8 10.08 17.8C9.06667 17.8 8.14667 18.0667 7.32 18.6C6.52 19.1333 5.88 19.84 5.4 20.72C4.94667 21.5733 4.72 22.52 4.72 23.56Z" fill="#0652DD"/>
<path d="M22.0369 1H25.7569V31.96H22.0369V1Z" fill="#0652DD"/>
<path d="M29.9931 15.4H33.7131V31.96H29.9931V15.4ZM29.7131 9.4C29.7131 8.81333 29.9398 8.32 30.3931 7.92C30.8731 7.52 31.3931 7.32 31.9531 7.32C32.5131 7.32 33.0065 7.52 33.4331 7.92C33.8865 8.32 34.1131 8.81333 34.1131 9.4C34.1131 10.0133 33.8865 10.52 33.4331 10.92C33.0065 11.2933 32.5131 11.48 31.9531 11.48C31.3931 11.48 30.8731 11.28 30.3931 10.88C29.9398 10.48 29.7131 9.98667 29.7131 9.4Z" fill="#0652DD"/>
<path d="M44.1894 21.56L48.1494 15.4H51.9094L45.5494 24.28L44.1894 21.56ZM52.5494 31.96H48.0694L35.4694 15.4H40.0694L52.5494 31.96ZM43.7894 25.8L39.4294 31.96H35.6694L41.9894 23.32L43.7894 25.8Z" fill="#0652DD"/>
<path d="M75.2556 15.4H78.9756V31.96H75.2556V15.4ZM74.9756 9.4C74.9756 8.81333 75.2023 8.32 75.6556 7.92C76.1356 7.52 76.6556 7.32 77.2156 7.32C77.7756 7.32 78.269 7.52 78.6956 7.92C79.149 8.32 79.3756 8.81333 79.3756 9.4C79.3756 10.0133 79.149 10.52 78.6956 10.92C78.269 11.2933 77.7756 11.48 77.2156 11.48C76.6556 11.48 76.1356 11.28 75.6556 10.88C75.2023 10.48 74.9756 9.98667 74.9756 9.4Z" fill="#0652DD"/>
<path d="M86.5319 15.4L86.8519 19.44L86.6919 18.8C87.2252 17.5733 88.0919 16.6 89.2919 15.88C90.4919 15.1333 91.8785 14.76 93.4519 14.76C95.0252 14.76 96.3052 15.2267 97.2919 16.16C98.3052 17.0667 98.8252 18.2533 98.8519 19.72V31.96H95.0919V21.04C95.0652 20.1333 94.7985 19.4 94.2919 18.84C93.8119 18.2533 93.0519 17.96 92.0119 17.96C91.0519 17.96 90.1852 18.2267 89.4119 18.76C88.6385 19.2933 88.0252 20.0267 87.5719 20.96C87.1452 21.8933 86.9319 22.9733 86.9319 24.2V31.96H83.2119V15.4H86.5319Z" fill="#0652DD"/>
<path d="M70.0571 15.96V18.36H68.9143V25.56L71.2 29.16V31.56H64.3429V39.96H62.0571V31.56H55.2V29.16L57.4857 25.56V18.36H56.3429V15.96H70.0571ZM59.7714 18.36V26.2872L57.9474 29.16H68.4526L66.6286 26.2872V18.36H59.7714Z" fill="#0652DD"/>
<path d="M1 23.52C1 21.8667 1.38667 20.3733 2.16 19.04C2.96 17.7067 4.05333 16.6533 5.44 15.88C6.82667 15.1067 8.4 14.72 10.16 14.72C11.9733 14.72 13.56 15.1067 14.92 15.88C16.28 16.6533 17.3333 17.7067 18.08 19.04C18.8267 20.3733 19.2 21.8667 19.2 23.52C19.2 25.1733 18.8267 26.68 18.08 28.04C17.3333 29.3733 16.2667 30.4267 14.88 31.2C13.52 31.9733 11.9333 32.36 10.12 32.36C8.36 32.36 6.78667 32 5.4 31.28C4.04 30.5333 2.96 29.5067 2.16 28.2C1.38667 26.8667 1 25.3067 1 23.52ZM4.72 23.56C4.72 24.6267 4.96 25.6 5.44 26.48C5.92 27.3333 6.56 28.0133 7.36 28.52C8.18667 29.0267 9.09333 29.28 10.08 29.28C11.12 29.28 12.04 29.0267 12.84 28.52C13.6667 28.0133 14.3067 27.3333 14.76 26.48C15.2133 25.6 15.44 24.6267 15.44 23.56C15.44 22.4933 15.2133 21.5333 14.76 20.68C14.3067 19.8 13.6667 19.1067 12.84 18.6C12.04 18.0667 11.12 17.8 10.08 17.8C9.06667 17.8 8.14667 18.0667 7.32 18.6C6.52 19.1333 5.88 19.84 5.4 20.72C4.94667 21.5733 4.72 22.52 4.72 23.56Z" stroke="#0652DD" stroke-width="0.8" mask="url(#path-1-outside-1_9630_129763)"/>
<path d="M22.0369 1H25.7569V31.96H22.0369V1Z" stroke="#0652DD" stroke-width="0.8" mask="url(#path-1-outside-1_9630_129763)"/>
<path d="M29.9931 15.4H33.7131V31.96H29.9931V15.4ZM29.7131 9.4C29.7131 8.81333 29.9398 8.32 30.3931 7.92C30.8731 7.52 31.3931 7.32 31.9531 7.32C32.5131 7.32 33.0065 7.52 33.4331 7.92C33.8865 8.32 34.1131 8.81333 34.1131 9.4C34.1131 10.0133 33.8865 10.52 33.4331 10.92C33.0065 11.2933 32.5131 11.48 31.9531 11.48C31.3931 11.48 30.8731 11.28 30.3931 10.88C29.9398 10.48 29.7131 9.98667 29.7131 9.4Z" stroke="#0652DD" stroke-width="0.8" mask="url(#path-1-outside-1_9630_129763)"/>
<path d="M44.1894 21.56L48.1494 15.4H51.9094L45.5494 24.28L44.1894 21.56ZM52.5494 31.96H48.0694L35.4694 15.4H40.0694L52.5494 31.96ZM43.7894 25.8L39.4294 31.96H35.6694L41.9894 23.32L43.7894 25.8Z" stroke="#0652DD" stroke-width="0.8" mask="url(#path-1-outside-1_9630_129763)"/>
<path d="M75.2556 15.4H78.9756V31.96H75.2556V15.4ZM74.9756 9.4C74.9756 8.81333 75.2023 8.32 75.6556 7.92C76.1356 7.52 76.6556 7.32 77.2156 7.32C77.7756 7.32 78.269 7.52 78.6956 7.92C79.149 8.32 79.3756 8.81333 79.3756 9.4C79.3756 10.0133 79.149 10.52 78.6956 10.92C78.269 11.2933 77.7756 11.48 77.2156 11.48C76.6556 11.48 76.1356 11.28 75.6556 10.88C75.2023 10.48 74.9756 9.98667 74.9756 9.4Z" stroke="#0652DD" stroke-width="0.8" mask="url(#path-1-outside-1_9630_129763)"/>
<path d="M86.5319 15.4L86.8519 19.44L86.6919 18.8C87.2252 17.5733 88.0919 16.6 89.2919 15.88C90.4919 15.1333 91.8785 14.76 93.4519 14.76C95.0252 14.76 96.3052 15.2267 97.2919 16.16C98.3052 17.0667 98.8252 18.2533 98.8519 19.72V31.96H95.0919V21.04C95.0652 20.1333 94.7985 19.4 94.2919 18.84C93.8119 18.2533 93.0519 17.96 92.0119 17.96C91.0519 17.96 90.1852 18.2267 89.4119 18.76C88.6385 19.2933 88.0252 20.0267 87.5719 20.96C87.1452 21.8933 86.9319 22.9733 86.9319 24.2V31.96H83.2119V15.4H86.5319Z" stroke="#0652DD" stroke-width="0.8" mask="url(#path-1-outside-1_9630_129763)"/>
<path d="M70.0571 15.96V18.36H68.9143V25.56L71.2 29.16V31.56H64.3429V39.96H62.0571V31.56H55.2V29.16L57.4857 25.56V18.36H56.3429V15.96H70.0571ZM59.7714 18.36V26.2872L57.9474 29.16H68.4526L66.6286 26.2872V18.36H59.7714Z" stroke="#0652DD" stroke-width="0.8" mask="url(#path-1-outside-1_9630_129763)"/>
</svg>
